mtllib materials.mtl
v 0.07000001 -0.36875 0.02249998
v 0.07000001 -0.36875 0.04249996
v 0.07000001 0.2312499 0.04250008
v 0.07000001 0.2312499 0.0225001
v -0.41 -0.36875 0.02249998
v -0.41 0.2312499 0.0225001
v -0.41 0.2312499 0.04250008
v -0.41 -0.36875 0.04249996
v 0.07000001 -0.36875 -0.06750011
v 0.07000001 -0.36875 -0.04750013
v 0.07000001 0.2312499 -0.0474999
v 0.07000001 0.2312499 -0.06749988
v -0.41 -0.36875 -0.06750011
v -0.41 0.2312499 -0.06749988
v -0.41 0.2312499 -0.0474999
v -0.41 -0.36875 -0.04750013
v 0.08600003 -0.3687499 0.04049999
v 0.06600003 -0.3687499 0.03049999
v 0.06599993 0.2312502 0.03049999
v 0.08599991 0.2312502 0.04049999
v 0.08600004 -0.3687499 -0.06550008
v 0.08599993 0.2312502 -0.06550008
v 0.06599994 0.2312502 -0.05550009
v 0.06600004 -0.3687499 -0.05550009
v 0.09599991 0.2312502 0.04049999
v 0.09600003 -0.3687499 0.04049999
v 0.09599993 0.2312502 -0.06550008
v 0.09600005 -0.3687499 -0.06550008
v 0.1059999 0.2312502 0.0352
v 0.106 -0.3687499 0.0352
v 0.106 0.2312502 -0.0602001
v 0.1060001 -0.3687499 -0.0602001
v -0.3999999 -0.3487502 0.02250004
v -0.3999999 -0.3487502 -0.01249993
v -0.3999999 0.2212499 -0.01250005
v -0.3999999 0.2212499 0.02249992
v 0.07000004 -0.3487502 0.0225001
v 0.07000004 0.2212499 0.02249998
v 0.07000004 0.2212499 -0.04750001
v 0.07000004 -0.3487502 -0.0474999
v -0.3999999 -0.3487502 -0.04749995
v -0.3999999 0.2212499 -0.04750007
v 0.11 0.11125 0.02249998
v 0.09000002 0.11125 0.02249998
v 0.09000001 0.16125 0.02249998
v 0.11 0.16125 0.02249998
v 0.11 0.11125 0.002499998
v 0.11 0.16125 0.002499998
v 0.09000001 0.16125 0.002499998
v 0.09000002 0.11125 0.002499998
v 0.11 0.08124995 0.02249998
v 0.09000003 0.08124995 0.02249998
v 0.09000002 0.1012499 0.02249998
v 0.11 0.1012499 0.02249998
v 0.11 0.08124995 0.002499998
v 0.11 0.1012499 0.002499998
v 0.09000002 0.1012499 0.002499998
v 0.09000003 0.08124995 0.002499998
v 0.11 0.06124997 0.02249998
v 0.09000003 0.06124997 0.02249998
v 0.09000002 0.08124995 0.02249998
v 0.11 0.08124995 0.02249998
v 0.11 0.06124997 0.002499998
v 0.11 0.08124995 0.002499998
v 0.09000002 0.08124995 0.002499998
v 0.09000003 0.06124997 0.002499998
v 0.1100001 -0.09875 0.02249998
v 0.09000005 -0.09875 0.02249998
v 0.09000003 0.0512501 0.02249998
v 0.11 0.0512501 0.02249998
v 0.1100001 -0.09875 0.002499998
v 0.11 0.0512501 0.002499998
v 0.09000003 0.0512501 0.002499998
v 0.09000005 -0.09875 0.002499998
vn 1 -1.924734e-09 -3.365311e-16
vn -1 1.924734e-09 3.365311e-16
vn 0 -1 4.087833e-07
vn 0 1 -4.087833e-07
vn -2.716357e-10 1.748456e-07 -1
vn 2.716357e-10 -1.748456e-07 1
vn 1 -1.924734e-09 -6.730623e-16
vn -1 1.924734e-09 6.730623e-16
vn 0 -1 2.339377e-07
vn 0 1 -2.339377e-07
vn -2.716357e-10 3.496911e-07 -1
vn 2.716357e-10 -3.496911e-07 1
vn -0.4472134 -8.308437e-08 0.8944273
vn -0.4472134 -8.256934e-08 -0.8944273
vn -1.018799e-06 -1 -1.422935e-13
vn 2.141339e-07 1 4.636996e-14
vn 2.533198e-07 -8.959258e-09 1
vn -1 -1.732934e-07 -1.725329e-07
vn 5.297208e-07 1 8.399086e-14
vn 1.192093e-07 -5.320948e-09 -1
vn 2.70565e-06 -1 3.016954e-13
vn 0.4682922 8.081126e-08 0.8835737
vn -2.727331e-06 1 -3.042799e-13
vn 0.4682922 7.792657e-08 -0.8835737
vn 5.705087e-06 -1 6.041309e-13
vn 1 1.624279e-07 1.560717e-07
vn -1 -3.102355e-08 -8.742277e-08
vn 1 -6.834365e-09 8.742278e-08
vn -9.433227e-15 -1 1.079035e-07
vn -6.340919e-08 1 -8.072816e-08
vn -1.022016e-07 1.944523e-07 1
vn 1.202788e-07 -1.944523e-07 -1
vn -1 -1.660587e-08 -8.742278e-08
vn -1.192093e-07 3.888271e-09 1
vn 1.192093e-07 -3.888271e-09 -1
vn 1.585474e-07 -1 -1.94289e-15
vn -1.585474e-07 1 1.94289e-15
vn 1 1.748456e-07 1.1269e-07
vn -1 -1.748456e-07 -1.1269e-07
vn -1.192093e-07 9.720678e-09 1
vn 1.192093e-07 -9.720678e-09 -1
vn 1.651249e-07 -1 -1.158795e-15
vn -1.651249e-07 1 1.158795e-15
vn 1 1.748456e-07 1.094886e-07
vn -1 -1.748456e-07 -1.094886e-07
vn -1.192093e-07 9.720678e-09 1
vn 1.192093e-07 -9.720678e-09 -1
vn 1.651249e-07 -1 -1.158795e-15
vn -1.651249e-07 1 1.158795e-15
vn 1 1.748456e-07 1.094886e-07
vn -1 -1.748456e-07 -1.094886e-07
vn -1.192093e-07 1.296091e-09 1
vn 1.192093e-07 -1.296091e-09 -1
vn 1.259511e-07 -1 -5.828671e-15
vn -1.259511e-07 1 5.828671e-15
vn 1 1.748456e-07 1.1269e-07
vn -1 -1.748456e-07 -1.1269e-07
vt 0.1208976 0.005812379
vt 0.122525 0.004649904
vt 0.1573993 0.0534739
vt 0.1557719 0.05463638
vt -0.1208976 0.005812379
vt -0.1557719 0.05463638
vt -0.1573993 0.0534739
vt -0.122525 0.004649903
vt 0.08509315 -0.0441946
vt 0.06894901 -0.08939822
vt 0.07083249 -0.09007089
vt 0.08697663 -0.04486727
vt -0.08509319 -0.04419461
vt -0.08697666 -0.04486728
vt -0.07083253 -0.0900709
vt -0.06894904 -0.08939823
vt -0.07289584 0.02191347
vt -0.1265615 0.04874628
vt -0.1480277 0.005813771
vt -0.09436209 -0.02101904
vt 0.07289584 0.02191347
vt 0.09436209 -0.02101904
vt 0.1480277 0.005813771
vt 0.1265615 0.04874628
vt 0.1135739 0.01104353
vt 0.1152014 0.009881053
vt 0.1500757 0.05870504
vt 0.1484483 0.05986752
vt -0.1135739 0.01104353
vt -0.1484483 0.05986752
vt -0.1500757 0.05870504
vt -0.1152014 0.009881053
vt 0.07661744 -0.04116757
vt 0.0604733 -0.08637118
vt 0.06235678 -0.08704386
vt 0.07850092 -0.04184024
vt -0.07661748 -0.04116758
vt -0.07850096 -0.04184026
vt -0.06235682 -0.08704387
vt -0.06047333 -0.0863712
vt -0.07289584 0.02191347
vt -0.1265615 0.04874627
vt -0.1480277 0.005813765
vt -0.09436209 -0.02101904
vt 0.07289585 0.02191347
vt 0.09436209 -0.02101904
vt 0.1480277 0.005813765
vt 0.1265615 0.04874627
vt 0.04338475 0.06955548
vt 0.0446428 0.06770688
vt 0.0942459 0.1014639
vt 0.09298785 0.1033125
vt -0.08865412 -0.01190153
vt -0.1428651 0.01381168
vt -0.1438234 0.01179136
vt -0.08961238 -0.01392185
vt 0.08732636 -0.04329331
vt 0.07734388 -0.03972814
vt 0.07761295 -0.04194796
vt 0.08571194 -0.04484046
vt -0.08732637 -0.04329326
vt -0.08571196 -0.04484041
vt -0.07761297 -0.04194791
vt -0.0773439 -0.03972809
vt 0.07218029 0.02334453
vt 0.1258459 0.05017734
vt 0.1253987 0.05107177
vt 0.07173308 0.02423896
vt -0.1215485 0.005347346
vt -0.1145504 0.010346
vt -0.1494247 0.05917001
vt -0.1564229 0.05417135
vt -0.08732635 -0.0432933
vt -0.07734388 -0.03972814
vt -0.07768022 -0.0387864
vt -0.08766268 -0.04235157
vt -0.1258459 0.05017738
vt -0.07218027 0.02334457
vt -0.07173306 0.02423899
vt -0.1253987 0.0510718
vt 0.077344 -0.03972783
vt 0.08732647 -0.04329299
vt 0.0876628 -0.04235125
vt 0.07768033 -0.03878609
vt 0.09114929 -0.01700645
vt 0.1453288 0.008773131
vt 0.1448425 0.009795109
vt 0.09066302 -0.01598447
vt -0.08766286 -0.0423511
vt -0.07768039 -0.03878594
vt -0.07851584 -0.03802245
vt -0.08750007 -0.0412311
vt -0.09285498 0.1028348
vt -0.04365501 0.06849296
vt -0.04300723 0.06942102
vt -0.0922072 0.1037629
vt 0.07768042 -0.03878584
vt 0.0876629 -0.042351
vt 0.08750011 -0.041231
vt 0.07851588 -0.03802235
vt 0.121931 0.005074179
vt 0.1568053 0.05389818
vt 0.1490423 0.0594432
vt 0.114168 0.0106192
vt -0.12206 0.00743981
vt -0.1192119 0.009474142
vt -0.1523425 0.05585696
vt -0.1551906 0.05382263
vt 0.12206 0.007439813
vt 0.1551906 0.05382263
vt 0.1494945 0.0578913
vt 0.1163639 0.01150848
vt 0.06928532 -0.08845647
vt 0.08509313 -0.0441946
vt 0.07850094 -0.04184025
vt 0.06269313 -0.08610211
vt 0.06598923 -0.0872793
vt -0.06928531 -0.08845647
vt -0.06598921 -0.08727928
vt -0.06269312 -0.08610211
vt -0.07850093 -0.04184024
vt -0.08509313 -0.04419459
vt 0.09570368 -0.01923018
vt 0.146686 0.006261002
vt 0.125667 0.04829908
vt 0.07468463 0.02280789
vt -0.09570368 -0.01923018
vt -0.07468463 0.02280789
vt -0.125667 0.04829908
vt -0.146686 0.006261004
vt -0.1192119 0.009474147
vt -0.1163639 0.01150848
vt -0.1494945 0.0578913
vt -0.1523425 0.05585697
vt 0.1140395 0.04695744
vt 0.1149339 0.04516859
vt 0.119406 0.04740465
vt 0.1185116 0.04919351
vt -0.1140395 0.04695744
vt -0.1185116 0.04919351
vt -0.119406 0.04740465
vt -0.1149339 0.04516859
vt 0.08643846 -0.04042762
vt 0.08455499 -0.03975495
vt 0.08388231 -0.04163843
vt 0.08576579 -0.0423111
vt -0.08643846 -0.04042762
vt -0.08576579 -0.0423111
vt -0.08388231 -0.04163843
vt -0.08455499 -0.03975495
vt 0.148797 0.04487155
vt 0.1517032 0.04894022
vt 0.1500757 0.05010269
vt 0.1471695 0.04603403
vt -0.148797 0.04487155
vt -0.1471695 0.04603403
vt -0.1500757 0.05010269
vt -0.1517032 0.04894022
vt 0.1113562 0.0456158
vt 0.1122506 0.04382695
vt 0.1140395 0.04472137
vt 0.113145 0.04651022
vt -0.1113562 0.0456158
vt -0.113145 0.04651022
vt -0.1140395 0.04472137
vt -0.1122506 0.04382695
vt 0.08643846 -0.04042762
vt 0.08455499 -0.03975495
vt 0.08388231 -0.04163843
vt 0.08576579 -0.0423111
vt -0.08643846 -0.04042762
vt -0.08576579 -0.0423111
vt -0.08388231 -0.04163843
vt -0.08455499 -0.03975495
vt 0.1470533 0.04243034
vt 0.1482158 0.04405781
vt 0.1465883 0.04522029
vt 0.1454258 0.04359282
vt -0.1470533 0.04243034
vt -0.1454258 0.04359282
vt -0.1465883 0.04522029
vt -0.1482158 0.04405781
vt 0.1095673 0.04472137
vt 0.1104617 0.04293252
vt 0.1122506 0.04382694
vt 0.1113562 0.0456158
vt -0.1095673 0.04472137
vt -0.1113562 0.0456158
vt -0.1122506 0.04382694
vt -0.1104617 0.04293252
vt 0.08643846 -0.04042762
vt 0.08455499 -0.03975495
vt 0.08388231 -0.04163843
vt 0.08576579 -0.0423111
vt -0.08643846 -0.04042762
vt -0.08576579 -0.0423111
vt -0.08388231 -0.04163843
vt -0.08455499 -0.03975495
vt 0.1458908 0.04080288
vt 0.1470533 0.04243034
vt 0.1454258 0.04359282
vt 0.1442633 0.04196535
vt -0.1458908 0.04080288
vt -0.1442633 0.04196535
vt -0.1454258 0.04359282
vt -0.1470533 0.04243034
vt 0.09525649 0.03756595
vt 0.09615092 0.0357771
vt 0.1095673 0.04248531
vt 0.1086729 0.04427416
vt -0.09525649 0.03756595
vt -0.1086729 0.04427416
vt -0.1095673 0.04248531
vt -0.09615092 0.0357771
vt 0.08643846 -0.04042762
vt 0.08455499 -0.03975495
vt 0.08388231 -0.04163843
vt 0.08576579 -0.04231111
vt -0.08643846 -0.04042762
vt -0.08576579 -0.04231111
vt -0.08388231 -0.04163843
vt -0.08455498 -0.03975495
vt 0.136591 0.02778315
vt 0.1453096 0.03998915
vt 0.1436821 0.04115163
vt 0.1349635 0.02894562
vt -0.136591 0.02778315
vt -0.1349635 0.02894562
vt -0.1436821 0.04115163
vt -0.1453096 0.03998915
o group1555392229
g mesh1555392229
usemtl mat14
f 4/4/1 3/3/1 2/2/1 1/1/1
f 8/8/2 7/7/2 6/6/2 5/5/2
f 2/12/3 8/11/3 5/10/3 1/9/3
f 6/16/4 7/15/4 3/14/4 4/13/4
f 5/20/5 6/19/5 4/18/5 1/17/5
f 3/24/6 7/23/6 8/22/6 2/21/6
o group1921312344
g mesh1921312344
usemtl mat14
f 12/28/7 11/27/7 10/26/7 9/25/7
f 16/32/8 15/31/8 14/30/8 13/29/8
f 10/36/9 16/35/9 13/34/9 9/33/9
f 14/40/10 15/39/10 11/38/10 12/37/10
f 13/44/11 14/43/11 12/42/11 9/41/11
f 11/48/12 15/47/12 16/46/12 10/45/12
o group763087133
g mesh763087133
usemtl mat14
f 20/52/13 19/51/13 18/50/13 17/49/13
f 24/56/14 23/55/14 22/54/14 21/53/14
f 18/60/15 24/59/15 21/58/15 17/57/15
f 22/64/16 23/63/16 19/62/16 20/61/16
f 26/68/17 25/67/17 20/66/17 17/65/17
f 19/72/18 23/71/18 24/70/18 18/69/18
f 25/76/19 27/75/19 22/74/19 20/73/19
f 27/80/20 28/79/20 21/78/20 22/77/20
f 28/84/21 26/83/21 17/82/21 21/81/21
f 30/88/22 29/87/22 25/86/22 26/85/22
f 29/92/23 31/91/23 27/90/23 25/89/23
f 31/96/24 32/95/24 28/94/24 27/93/24
f 32/100/25 30/99/25 26/98/25 28/97/25
f 32/104/26 31/103/26 29/102/26 30/101/26
o group1420555442
g mesh1420555442
usemtl mat21
f 36/108/27 35/107/27 34/106/27 33/105/27
f 40/112/28 39/111/28 38/110/28 37/109/28
f 34/117/29 41/116/29 40/115/29 37/114/29 33/113/29
f 38/122/30 39/121/30 42/120/30 35/119/30 36/118/30
f 37/126/31 38/125/31 36/124/31 33/123/31
f 42/130/32 39/129/32 40/128/32 41/127/32
f 35/134/33 42/133/33 41/132/33 34/131/33
o group292385261
g mesh292385261
usemtl mat21
f 46/138/34 45/137/34 44/136/34 43/135/34
f 50/142/35 49/141/35 48/140/35 47/139/35
f 44/146/36 50/145/36 47/144/36 43/143/36
f 48/150/37 49/149/37 45/148/37 46/147/37
f 47/154/38 48/153/38 46/152/38 43/151/38
f 45/158/39 49/157/39 50/156/39 44/155/39
o group1841827071
g mesh1841827071
usemtl mat21
f 54/162/40 53/161/40 52/160/40 51/159/40
f 58/166/41 57/165/41 56/164/41 55/163/41
f 52/170/42 58/169/42 55/168/42 51/167/42
f 56/174/43 57/173/43 53/172/43 54/171/43
f 55/178/44 56/177/44 54/176/44 51/175/44
f 53/182/45 57/181/45 58/180/45 52/179/45
o group530903543
g mesh530903543
usemtl mat21
f 62/186/46 61/185/46 60/184/46 59/183/46
f 66/190/47 65/189/47 64/188/47 63/187/47
f 60/194/48 66/193/48 63/192/48 59/191/48
f 64/198/49 65/197/49 61/196/49 62/195/49
f 63/202/50 64/201/50 62/200/50 59/199/50
f 61/206/51 65/205/51 66/204/51 60/203/51
o group947448277
g mesh947448277
usemtl mat21
f 70/210/52 69/209/52 68/208/52 67/207/52
f 74/214/53 73/213/53 72/212/53 71/211/53
f 68/218/54 74/217/54 71/216/54 67/215/54
f 72/222/55 73/221/55 69/220/55 70/219/55
f 71/226/56 72/225/56 70/224/56 67/223/56
f 69/230/57 73/229/57 74/228/57 68/227/57
